<svg width="20" height="20" viewBox="0 0 20 20" fill="none" xmlns="http://www.w3.org/2000/svg">
<path d="M18.075 0.849976H16.0687C15.8183 0.851233 15.5766 0.942521 15.3879 1.10717C15.1991 1.27183 15.0759 1.49887 15.0406 1.74685L14.4781 5.80935H13.3969V3.4031C13.3945 3.1654 13.2994 2.93802 13.1319 2.76935C12.9644 2.60068 12.7377 2.50403 12.5 2.49998H10.0812C10.0545 2.27763 9.94904 2.07221 9.78395 1.92089C9.61887 1.76956 9.40507 1.68233 9.18125 1.67498H6.45312C6.32808 1.67815 6.20494 1.70632 6.09095 1.75782C5.97696 1.80932 5.87443 1.8831 5.7894 1.97484C5.70436 2.06657 5.63855 2.17439 5.59582 2.29195C5.5531 2.40951 5.53433 2.53443 5.54062 2.65935V3.32498H3.15C2.91319 3.32162 2.68467 3.41207 2.5143 3.57659C2.34393 3.7411 2.24555 3.96632 2.24062 4.2031V5.81248C2.09913 5.81539 1.96001 5.84937 1.8331 5.91201C1.7062 5.97466 1.59461 6.06443 1.50625 6.17498C1.41539 6.29094 1.3519 6.42593 1.32051 6.56986C1.28913 6.7138 1.29066 6.86297 1.325 7.00623C1.32366 7.02182 1.32366 7.0375 1.325 7.0531L3.2375 12.9375C3.29246 13.1432 3.41453 13.3247 3.58436 13.4532C3.75419 13.5818 3.96205 13.6499 4.175 13.6468H13.3875C13.7371 13.6464 14.0748 13.5197 14.3384 13.29C14.6019 13.0603 14.7737 12.7431 14.8219 12.3968L16.25 2.09998H18.0719C18.2376 2.09998 18.3966 2.03413 18.5138 1.91692C18.631 1.79971 18.6969 1.64074 18.6969 1.47498C18.6969 1.30922 18.631 1.15024 18.5138 1.03303C18.3966 0.915824 18.2376 0.849976 18.0719 0.849976H18.075ZM12.1375 5.79373H10.0937V3.74998H12.1469L12.1375 5.79373ZM6.79062 2.9156H8.84375V3.39998V5.7906H6.79062V2.9156ZM3.49062 4.5656H5.54062V5.79373H3.49062V4.5656ZM13.5844 12.225C13.5783 12.2727 13.5548 12.3166 13.5186 12.3483C13.4823 12.38 13.4357 12.3972 13.3875 12.3968H4.375L2.65312 7.04998H14.3031L13.5844 12.225Z" fill="white"/>
<path d="M5.3125 15.1125C4.91258 15.1094 4.52075 15.2252 4.18672 15.4451C3.85269 15.665 3.59151 15.9792 3.43632 16.3478C3.28112 16.7164 3.23891 17.1228 3.31503 17.5154C3.39115 17.908 3.58218 18.2692 3.86387 18.5531C4.14557 18.837 4.50524 19.0308 4.89726 19.11C5.28928 19.1891 5.69598 19.1501 6.06577 18.9978C6.43556 18.8454 6.75177 18.5867 6.97429 18.2544C7.19681 17.9221 7.31562 17.5312 7.31563 17.1312C7.31686 16.8671 7.266 16.6053 7.16597 16.3608C7.06593 16.1164 6.91867 15.894 6.73263 15.7065C6.54658 15.519 6.32539 15.3701 6.08171 15.2681C5.83803 15.1662 5.57664 15.1133 5.3125 15.1125ZM5.3125 17.9C5.15983 17.9031 5.00969 17.8607 4.88123 17.7781C4.75278 17.6955 4.65182 17.5766 4.59123 17.4364C4.53064 17.2962 4.51317 17.1412 4.54104 16.9911C4.56892 16.8409 4.64087 16.7025 4.74774 16.5934C4.8546 16.4843 4.99153 16.4096 5.14106 16.3786C5.29059 16.3477 5.44596 16.3619 5.58734 16.4196C5.72873 16.4773 5.84972 16.5758 5.9349 16.7026C6.02009 16.8293 6.0656 16.9785 6.06563 17.1312C6.0673 17.3329 5.98898 17.5271 5.84783 17.6712C5.70668 17.8152 5.51419 17.8975 5.3125 17.9Z" fill="white"/>
<path d="M12.95 15.1125C12.5501 15.1094 12.1582 15.2252 11.8242 15.4451C11.4902 15.665 11.229 15.9792 11.0738 16.3478C10.9186 16.7164 10.8764 17.1228 10.9525 17.5154C11.0286 17.908 11.2197 18.2692 11.5014 18.5531C11.7831 18.837 12.1427 19.0308 12.5348 19.11C12.9268 19.1891 13.3335 19.1501 13.7033 18.9978C14.0731 18.8454 14.3893 18.5867 14.6118 18.2544C14.8343 17.9221 14.9531 17.5312 14.9531 17.1312C14.9548 16.598 14.7448 16.086 14.3692 15.7075C13.9936 15.329 13.4832 15.115 12.95 15.1125ZM12.95 17.9C12.7973 17.9031 12.6472 17.8607 12.5187 17.7781C12.3903 17.6955 12.2893 17.5766 12.2287 17.4364C12.1681 17.2962 12.1507 17.1412 12.1785 16.9911C12.2064 16.8409 12.2784 16.7025 12.3852 16.5934C12.4921 16.4843 12.629 16.4096 12.7786 16.3786C12.9281 16.3477 13.0835 16.3619 13.2248 16.4196C13.3662 16.4773 13.4872 16.5758 13.5724 16.7026C13.6576 16.8293 13.7031 16.9785 13.7031 17.1312C13.7048 17.3329 13.6265 17.5271 13.4853 17.6712C13.3442 17.8152 13.1517 17.8975 12.95 17.9Z" fill="white"/>
</svg>
