<svg width="32" height="32" viewBox="0 0 32 32" fill="none" xmlns="http://www.w3.org/2000/svg">
<rect width="32" height="32" rx="6" fill="#F87171"/>
<path d="M12.7957 11.7229L12.7963 11.7235L16.494 15.43L20.2043 11.7375L20.5577 12.0913L20.205 11.7369L20.2047 11.7371C20.5023 11.4403 20.9791 11.4404 21.2766 11.7375C21.5745 12.0351 21.5745 12.5126 21.2766 12.8102L21.2759 12.8108L17.5658 16.5031L21.262 20.2081C21.2621 20.2082 21.2622 20.2083 21.2623 20.2084C21.5599 20.506 21.5597 20.9833 21.262 21.2807L20.9086 20.927L21.2619 21.2807C21.1232 21.4193 20.9225 21.5 20.7331 21.5C20.5438 21.5 20.3431 21.4193 20.2043 21.2807L20.5577 20.927L20.2043 21.2807L16.4933 17.5743L12.7963 21.2801L12.7957 21.2808C12.6569 21.4193 12.4562 21.5 12.2669 21.5C12.0775 21.5 11.8768 21.4193 11.7381 21.2808L12.0914 20.927L11.738 21.2807C11.4404 20.9835 11.4401 20.5065 11.7372 20.2089C11.7375 20.2087 11.7378 20.2084 11.738 20.2081L15.4215 16.5025L11.7234 12.7956C11.7233 12.7954 11.7232 12.7953 11.7231 12.7952C11.4255 12.4976 11.4256 12.0203 11.7234 11.7229C12.021 11.4257 12.4981 11.4257 12.7957 11.7229Z" fill="white" stroke="white"/>
</svg>
