<svg viewBox="-4.8 -4.8 57.60 57.60" fill="none" xmlns="http://www.w3.org/2000/svg" transform="rotate(0)"><g id="SVGRepo_bgCarrier" stroke-width="0"></g><g id="SVGRepo_tracerCarrier" stroke-linecap="round" stroke-linejoin="round"></g><g id="SVGRepo_iconCarrier"> <path d="M43 26V32C43 33.1046 42.1046 34 41 34H7C5.89543 34 5 33.1046 5 32V12C5 10.8954 5.89543 10 7 10H16" stroke="#212B36" stroke-width="4" stroke-linecap="round"></path> <path d="M4 40L44 40" stroke="#212B36" stroke-width="4" stroke-linecap="round" stroke-linejoin="round"></path> <circle cx="30" cy="17" r="9" fill="#3056D3" stroke="#212B36" stroke-width="4"></circle> <path d="M19 18V16" stroke="#212B36" stroke-width="4" stroke-linecap="round" stroke-linejoin="round"></path> <path d="M41 18V16" stroke="#212B36" stroke-width="4" stroke-linecap="round" stroke-linejoin="round"></path> <path d="M30 8C29.8333 7 28.8 4.8 26 4" stroke="#212B36" stroke-width="4" stroke-linecap="round" stroke-linejoin="round"></path> <path d="M30 8C30.0833 7 30.6 4.8 32 4" stroke="#212B36" stroke-width="4" stroke-linecap="round" stroke-linejoin="round"></path> <circle cx="33" cy="16" r="2" fill="white"></circle> <circle cx="27" cy="16" r="2" fill="white"></circle> </g></svg>