<svg xmlns="http://www.w3.org/2000/svg" width="865.76" height="682.89" viewBox="0 0 865.76 682.89"><rect x="17.76" y="570.67" width="830.24" height="0.42" fill="#ebebeb"/><rect x="709.82" y="597.38" width="55" height="0.42" fill="#ebebeb"/><rect x="553.32" y="601.9" width="14.43" height="0.42" fill="#ebebeb"/><rect x="676.29" y="581.97" width="31.86" height="0.42" fill="#ebebeb"/><rect x="104.87" y="584.76" width="71.72" height="0.42" fill="#ebebeb"/><rect x="191.38" y="584.76" width="10.51" height="0.42" fill="#ebebeb"/><rect x="236.07" y="591.77" width="155.55" height="0.42" fill="#ebebeb"/><path d="M411.3,496.61H90.67a9.48,9.48,0,0,1-9.46-9.48V36.42A9.48,9.48,0,0,1,90.67,27H411.3a9.49,9.49,0,0,1,9.48,9.49h0V487.13A9.49,9.49,0,0,1,411.3,496.61ZM90.67,27.36a9.06,9.06,0,0,0-9,9.06V487.13a9.06,9.06,0,0,0,9,9.06H411.3a9.08,9.08,0,0,0,9.06-9.06V36.42a9.08,9.08,0,0,0-9.06-9.06Z" fill="#ebebeb"/><path d="M770.47,496.61H449.84a9.5,9.5,0,0,1-9.49-9.48V36.42a9.51,9.51,0,0,1,9.49-9.4H770.47a9.48,9.48,0,0,1,9.45,9.4V487.13A9.48,9.48,0,0,1,770.47,496.61ZM449.84,27.36a9.08,9.08,0,0,0-9.07,9.06V487.13a9.08,9.08,0,0,0,9.07,9.06H770.47a9.08,9.08,0,0,0,9.07-9.06V36.42a9.08,9.08,0,0,0-9.07-9.06Z" fill="#ebebeb"/><rect x="160.85" y="477.98" width="130.1" height="91.18" fill="#e0e0e0"/><rect x="160.85" y="477.98" width="91.18" height="91.18" fill="#f0f0f0"/><path d="M229.66,533.69c0,10-8,19.92-26.57,19.92a49.13,49.13,0,0,1-22.77-5.2L187,534a31.85,31.85,0,0,0,15.56,4.22c4.39,0,7.53-1.5,7.53-4.47,0-2.49-1.9-4-6.86-4h-7.76v-12l8.54-8.69H183.31V494.38h43.17v12L215.72,517.3C224.84,519.46,229.66,525.65,229.66,533.69Z" fill="#e0e0e0"/><rect x="174.46" y="297.12" width="130.1" height="91.18" fill="#e0e0e0"/><rect x="174.46" y="297.12" width="91.18" height="91.18" fill="#f0f0f0"/><path d="M232.63,313.44v57.92H213.1V328.19h-10V313.46Z" fill="#e0e0e0"/><rect x="193.36" y="387.55" width="130.1" height="91.18" fill="#e0e0e0"/><rect x="232.3" y="387.55" width="91.18" height="91.18" fill="#ebebeb"/><path d="M301.85,448.3v15.15H255.36v-12l21-19.28c4-3.72,4.54-6,4.54-7.95,0-2.81-1.9-4.55-5.62-4.55a9.47,9.47,0,0,0-8.52,5.38L252,417.7c4.22-7.95,12.57-13.41,25.07-13.41,13.73,0,23.42,7.12,23.42,18.13,0,5.71-1.5,10.84-10,18.45l-8.3,7.52Z" fill="#fafafa"/><path d="M697.16,547.58H563.23L568,540c16.41-26.18,36.12-57.78,54.15-86.91l-55-82.59,8.3-5.53,52.52,78.87c25.25-40.81,46-74.72,47.57-78.62a4.1,4.1,0,0,0-.26,1.51h10c0,2.06,0,3.57-51.21,86.23Zm-115.95-10h97.42l-50.31-75.47c-19.43,31.12-38.47,61.69-47.11,75.47Z" fill="#e0e0e0"/><path d="M521.2,303.56c83.26-2.92,91.59,69.43,91.59,69.43l39-5s-23,101.16-68.43,108.17-90.88-14.63-108.88-99.53C473.13,370.18,472.92,305.25,521.2,303.56Z" fill="#f0f0f0"/><path d="M482.12,380.19s19.42,88,57.78,88.49,43.49-92,43.49-92Z" fill="#e6e6e6"/><path d="M689.82,386.78H436.1a20.19,20.19,0,0,1-20.19-20.19h0a20.19,20.19,0,0,1,20.19-20.2H689.82A20.21,20.21,0,0,1,710,366.58h0a20.2,20.2,0,0,1-20.21,20.2Z" fill="#e0e0e0"/><path d="M690.49,548.83h-255a7.89,7.89,0,0,1-7.89-7.89h0a7.88,7.88,0,0,1,7.89-7.88H690.49a7.87,7.87,0,0,1,7.89,7.85v0h0A7.89,7.89,0,0,1,690.49,548.83Z" fill="#e0e0e0"/><path d="M564.23,547.58H430.31l4.76-7.62c16.43-26.18,36.14-57.78,54.17-86.91l-55.05-82.59,8.31-5.53L495,443.8c25.25-40.81,46-74.72,47.57-78.62a3.92,3.92,0,0,0-.27,1.51h10c0,2.06,0,3.57-51.21,86.23Zm-115.94-10h97.34l-50.31-75.47C476.05,493.27,456.93,523.84,448.29,537.62Z" fill="#e0e0e0"/><ellipse cx="436.87" cy="560.04" rx="13.68" ry="14.51" fill="#e0e0e0"/><ellipse cx="433.11" cy="560.04" rx="8.09" ry="8.57" fill="#ebebeb"/><ellipse cx="548.19" cy="560.04" rx="13.68" ry="14.51" fill="#e0e0e0"/><ellipse cx="544.45" cy="560.04" rx="8.09" ry="8.57" fill="#ebebeb"/><ellipse cx="689.41" cy="560.04" rx="13.68" ry="14.51" fill="#e0e0e0"/><path d="M693.76,560a8.08,8.08,0,1,1-8.09-8.57,8.3,8.3,0,0,1,8.09,8.51Z" fill="#ebebeb"/><ellipse cx="578.09" cy="560.04" rx="13.68" ry="14.51" fill="#e0e0e0"/><path d="M582.42,560a8.08,8.08,0,1,1-8.07-8.57,8.31,8.31,0,0,1,8.08,8.53Z" fill="#ebebeb"/><rect x="217.78" y="50.72" width="2.32" height="129.17" fill="#e0e0e0"/><rect x="337.04" y="50.72" width="2.32" height="117.74" fill="#e0e0e0"/><rect x="441.18" y="50.72" width="2.32" height="143.7" fill="#e0e0e0"/><rect x="547.84" y="50.72" width="2.32" height="129.17" fill="#e0e0e0"/><rect x="651.95" y="50.72" width="2.32" height="137.16" fill="#e0e0e0"/><rect x="173.06" y="163.19" width="90.4" height="90.4" transform="translate(-57.47 85.77) rotate(-19.7)" fill="#e0e0e0"/><path d="M233.11,174.81l17.95,50.11L237,230l-7-19.54-19.32,6.92,7,19.55L203.44,242l-18-50.12,14.16-5.08,6.75,18.83,19.34-6.92L219,179.89Z" fill="#f5f5f5"/><rect x="290.77" y="128.57" width="90.4" height="90.4" transform="translate(95.84 466.02) rotate(-77.94)" fill="#f5f5f5"/><path d="M343.43,192l-22-4.7-6.24,9.24-15-3.21,34.11-47.14,14.5,3.09,11.93,57-15.32-3.32Zm-2-11.77-3.21-18.1L328,177.35Z" fill="#e0e0e0"/><rect x="397.22" y="158.23" width="90.4" height="90.4" transform="translate(-31.42 91.21) rotate(-11.37)" fill="#e0e0e0"/><path d="M464.56,191.94c2.39,11.86-5.08,21-19.32,23.9l-9.09,1.82,2.74,13.65-14.76,3-10.49-52.19,23.86-4.78C451.73,174.42,462.17,180,464.56,191.94Zm-14.94,3c-1-4.85-4.6-7.06-10.71-5.83l-8.2,1.66,3.07,15.3,8.2-1.66c6.15-1.25,8.64-4.69,7.67-9.47Z" fill="#f5f5f5"/><rect x="507.11" y="128.36" width="90.4" height="90.4" transform="translate(354.07 717.5) rotate(-87.42)" fill="#f5f5f5"/><path d="M576.6,167.73c-.55,12.07-10,19.2-24.51,18.53l-9.28-.41-.62,13.9-15-.67L529.54,146,553.85,147C568.36,147.64,577.14,155.58,576.6,167.73Zm-15.2-.68c.22-5-2.77-8-9-8.3l-8.3-.38-.7,15.57,8.31.39C557.93,174.66,561.17,171.92,561.4,167.05Z" fill="#e0e0e0"/><rect x="610.61" y="162.14" width="90.4" height="90.4" transform="translate(-17.52 66.98) rotate(-5.77)" fill="#e0e0e0"/><path d="M664,214.09l1.93,19L651,234.6l-2-19.21-23.59-31.7L641.26,182l14.67,19.78,10.45-22.3L680.91,178Z" fill="#f5f5f5"/><ellipse cx="432.88" cy="626.86" rx="321.95" ry="18.8" fill="#f5f5f5"/><path d="M392.27,165.74l61.43-13.28a19.33,19.33,0,0,1,23,14.78h0l11.63,53.42a19.33,19.33,0,0,1-14.87,22.93l-9.29,2L470,262l-18.63-13.61L412.09,257a19.34,19.34,0,0,1-23-14.79h0l-11.63-53.41a19.35,19.35,0,0,1,14.8-23Z" fill="#0071f2"/><path d="M392.27,165.74l61.43-13.28a19.33,19.33,0,0,1,23,14.78h0l11.63,53.42a19.33,19.33,0,0,1-14.87,22.93l-9.29,2L470,262l-18.63-13.61L412.09,257a19.34,19.34,0,0,1-23-14.79h0l-11.63-53.41a19.35,19.35,0,0,1,14.8-23Z" fill="#fff" opacity="0.7" style="isolation:isolate"/><path d="M430.52,193.85c-15.11-10.14-27.78-1.86-25.07,10.63s32.63,24.08,32.63,24.08,22.38-23,19.68-35.45S440.07,178.34,430.52,193.85Z" fill="#0071f2"/><path d="M342.16,571.89s21.34-15.5,34.34-3.5l1.73,29s-21.73,0-28.73,10c0,0-8,0-13,5,0,0-5-11-9-15C327.5,597.39,338.82,581.39,342.16,571.89Z" fill="#2f2e41"/><path d="M342.16,571.89s21.34-15.5,34.34-3.5l1.73,29s-21.73,0-28.73,10c0,0-8,0-13,5,0,0-5-11-9-15C327.5,597.39,338.82,581.39,342.16,571.89Z" opacity="0.2"/><path d="M519.47,630.83c-5.81,6.38-15.1,10.65-25.87,13.45h0a159.45,159.45,0,0,1-28.49,4.29h0l-1.3.09a328.05,328.05,0,0,1-52.28-1.27c-33-3-41.72-13.62-41.72-13.62-21.71-21.62,6.37-38.9,6.37-38.9l.06.06c3.38,3,8.74,6.23,17.23,8.9l.35.11c8.24,2.55,19.36,4.53,34.41,5.19l1.05,0c44,1.73,72.18-1.71,84-13.26C536.93,610.46,519.47,630.83,519.47,630.83Z" fill="#0071f2"/><path d="M519.47,630.83c-5.81,6.38-15.1,10.65-25.87,13.45h0a159.45,159.45,0,0,1-28.49,4.29h0a9.36,9.36,0,0,0-1.3.09,328.05,328.05,0,0,1-52.28-1.27c-33-3-41.72-13.62-41.72-13.62-21.71-21.62,6.37-38.9,6.37-38.9l.06.06c.59.63,5.61,5.67,17.23,8.9l.38.11h0c-.93.12-20.41,2.78-25.29,16.45,0,0-4.61,12.27,15.7,17.14,0,0,9.08,4.84,73.69,5.35,0,0,60.61.51,56.61-24.49,0,0-1.88-8.49-21.44-12.74,0,0,12.88-2.2,20.16-9.73C536.93,610.46,519.47,630.83,519.47,630.83Z" opacity="0.2"/><path d="M519.24,584.26a20.26,20.26,0,0,1-6,11.66c-11.79,11.55-40,15-84,13.26l-1.05,0c-31-1.36-45.41-8.37-52.05-14.26-5.17-4.58-5.65-8.48-5.65-8.48-5-17,17.81-27,17.81-27h0c2.56,3.11,6.67,5.8,13.18,7,0,0,55.58,8.12,87.78,1.16h0a51.49,51.49,0,0,0,12.84-4.34h0C522.77,569,519.24,584.26,519.24,584.26Z" fill="#ccc"/><path d="M379.5,597.39s-12-27,22-31a18.9,18.9,0,0,1-13.18-7S371,567,370,580.62a16.33,16.33,0,0,0,3.37,10.94C374.94,593.73,377.21,596.32,379.5,597.39Z" opacity="0.2"/><path d="M489.29,567.55s25.71,3.05,28,23c0,0,11.53-18.47-15.11-27.29C502.14,563.21,493.08,566.71,489.29,567.55Z" opacity="0.2"/><path d="M499.79,489.12a13.9,13.9,0,0,1-8.59,12.13,15.12,15.12,0,0,1-1.89.67c-18.32,5.11-61.89,3.83-70.37,3.53-.93,0-1.86-.09-2.79-.2-8.34-.92-13.39-3-16.44-5.22-4.52-3.24-4.68-6.65-4.68-6.65-1.57-9.57,6.54-13.44,12.63-15h0a35.08,35.08,0,0,1,6.24-1l42.57-4c31-1,37.05,4,37.05,4,4.55,3.4,6.09,7.21,6.23,10.66C499.8,488.41,499.8,488.77,499.79,489.12Z" fill="#ccc"/><path d="M411.5,481.39s41,8,69-1C480.5,480.39,447.5,502.39,411.5,481.39Z" fill="#fff" opacity="0.2"/><path d="M499.79,489.12a14,14,0,0,1-10.48,12.8c-18.32,5.11-61.89,3.83-70.37,3.53-.93,0-1.86-.09-2.79-.2C395.48,503,395,493.38,395,493.38c-1.57-9.57,6.54-13.44,12.63-15-.69.38-14.94,8.21-6.16,17,0,0,8,9,48,8,0,0,43.52.25,50.28-15.34C499.8,488.41,499.8,488.77,499.79,489.12Z" opacity="0.2"/><ellipse cx="477" cy="490.89" rx="6.5" ry="3.5" transform="matrix(0.99, -0.16, 0.16, 0.99, -72.94, 83.38)" fill="#fff" opacity="0.2"/><path d="M424.5,481.39c13.72,1.16,27.69,1,41.22-1.69,2-.31,3.84-.9,5.78-1.31-15,5.26-31.46,5.7-47,3Z" opacity="0.2"/><path d="M487.5,428.39c-5-22-38.26-13.69-38.26-13.69a48.53,48.53,0,0,0-6.25,2.2,102.59,102.59,0,0,0-19.49,11.49c-22,17-18.21,32.86-18.21,32.86a22.48,22.48,0,0,0,3.24,9.1l0,0c9.33,14.42,33.59,8,33.59,8C495.79,460.41,487.5,428.39,487.5,428.39ZM459,438.07c-1.44,3.48-6.62,11.52-24.38,15.67a2.12,2.12,0,0,1-2.51-2.65c1.47-5,6.77-14.16,25.72-14.67A1.2,1.2,0,0,1,459,438.07Z" fill="#0071f2"/><path d="M500.5,524.39a19,19,0,0,1-5.91,5.51c-6.23,3.9-15.33,6-25.14,7h0c-24.3,2.55-52.94-1.54-52.94-1.54-11.28-2.09-17.85-4.88-21.67-7.42-5.33-3.53-5.33-6.58-5.33-6.58-3-14,10.21-21.36,10.21-21.36a24.37,24.37,0,0,0,7.15,3.38,50.05,50.05,0,0,0,9.29,1.84c.93.11,1.86.16,2.79.2,8.48.3,52.05,1.58,70.37-3.53a15.12,15.12,0,0,0,1.89-.67C507.9,511.1,500.5,524.39,500.5,524.39Z" fill="#0071f2"/><path d="M500.5,524.39a19,19,0,0,1-5.91,5.51c-6.23,3.9-15.33,6-25.14,7h0c-24.3,2.55-52.94-1.54-52.94-1.54-11.28-2.09-17.85-4.88-21.67-7.42-5.33-3.53-5.33-6.58-5.33-6.58-3-14,10.21-21.36,10.21-21.36a24.37,24.37,0,0,0,7.15,3.38,50.05,50.05,0,0,0,9.29,1.84c.93.11,1.86.16,2.79.2,8.48.3,52.05,1.58,70.37-3.53a15.12,15.12,0,0,0,1.89-.67C507.9,511.1,500.5,524.39,500.5,524.39Z" fill="#fff" opacity="0.3"/><ellipse cx="480.26" cy="512.94" rx="8.72" ry="3.91" transform="translate(-76.46 84.19) rotate(-9.28)" fill="#fff" opacity="0.2"/><path d="M442.14,478.4s-24.26,6.39-33.59-8c.7.53,18.55,13.7,47.95-2,0,0,30-17,23-40,0,0-2.21-14.12-28.6-11.06L443,416.9a48.53,48.53,0,0,1,6.25-2.2s33.26-8.31,38.26,13.69C487.5,428.39,495.79,460.41,442.14,478.4Z" opacity="0.2"/><ellipse cx="472" cy="433.39" rx="5.5" ry="6" fill="#fff" opacity="0.2"/><path d="M447.31,421.39c2.82,4,.69,6,.69,6-3.42,4.88-10.18-2-10.49-2.35,2,4.64,0,6.35,0,6.35-6,4-14-3-14-3-6,4-14,14-14,14-.31.58-.63,1.16-1,1.74-9.58,16.34-31,31.26-31,31.26-19,9-20.25,11.72-20.25,11.72l-2.75-9.72-1.23-4.13,2.23-26.87,15.3-6.27c4.82,1.07,10.42-1.12,15.45-4.16l0,0a78,78,0,0,0,14.22-11.54c10-14,23-17,23-17a87.23,87.23,0,0,0,13-6c12-2,8,9,8,9C457.5,420.39,447.31,421.39,447.31,421.39Z" fill="#f9b499"/><path d="M408.53,444.13c-9.58,16.34-31,31.26-31,31.26-19,9-20.25,11.72-20.25,11.72l-2.75-9.72-1.23-4.13,2.23-26.87,15.3-6.27c4.82,1.07,10.42-1.12,15.45-4.16-.73.78-13.67,14.82-10.75,28.43,0,0,1.11,7.57,13.56-1.21,0,0,17.44-13.79,16.44-21.79Z" fill="#f7a48b"/><path d="M370.8,440.12a1.75,1.75,0,0,0-.39,1.68c.47,1.51,1,4.79-1.44,8.85a5.24,5.24,0,0,0-.71,2.9,7.35,7.35,0,0,0,1.24,3.84s7,11-15,20c0,0-16,8-28,4a11.68,11.68,0,0,1,0,9s-5,6-15,1c0,0-6.5-4.5-24-3,0,0,3-10-13-12,0,0-35,4-45-50,0,0-9-58,44-69,0,0,13-3,45.5-3.5a51.77,51.77,0,0,1,13,3.22c10.31,4,23,12.76,23,31.78,0,0-2.5,23.5,7.5,23.5,0,0,8.48,0,7.48,7.81a9.72,9.72,0,0,1-1,3.14c-.88,1.78-2.23,5.67,1.1,8.41C370.06,431.75,376.1,434.18,370.8,440.12Z" fill="#f9b499"/><path d="M287.5,488.39s-10.1-2.75-7.42,9.34a25.45,25.45,0,0,1,.66,5.21c.13,8.93-2.39,33.61-30.24,61.45,0,0,24,0,44,15,0,0,20-2,33,18,0,0,32-38,18-82,0,0-4-8,7-18,0,0,7-3,4-13l-2-7s-15,8-28,4a11.68,11.68,0,0,1,0,9s-5,6-15,1C311.5,491.39,303.5,486.39,287.5,488.39Z" fill="#0071f2"/><path d="M250.5,564.39s-4,8-4,14a129.79,129.79,0,0,1,48,1A74.47,74.47,0,0,0,250.5,564.39Z" fill="#f9b499"/><path d="M322.27,639.7s2.23,11.69,10.23,14.69c0,0,1.84-35.43,26.92-42.71a9.65,9.65,0,0,0-9.92-4.29s-8,0-13,5C336.5,612.39,328,619,322.27,639.7Z" fill="#0071f2"/><path d="M332.5,654.39s10.73,7.49,20.37-11.26c0,0,9.47-24.17,6.55-31.45C359.42,611.68,337.5,613.39,332.5,654.39Z" fill="#2f2e41"/><path d="M508.5,558.39a21.07,21.07,0,0,1-6.36,4.82h0a51.49,51.49,0,0,1-12.84,4.34h0c-32.2,7-87.78-1.16-87.78-1.16-6.51-1.24-10.62-3.93-13.18-7h0c-5.71-6.92-3.81-16-3.81-16A19.7,19.7,0,0,1,394.83,528c3.82,2.54,10.39,5.33,21.67,7.42,0,0,45.83,6.55,70.74-2.08a38,38,0,0,0,6-2.62l.72-.41.26-.16.2-.12.16-.1C525.63,537.42,508.5,558.39,508.5,558.39Z" fill="#2f2e41"/><path d="M469.44,536.93c-24.3,2.55-52.94-1.54-52.94-1.54-11.28-2.09-17.85-4.88-21.67-7.42-5.33-3.53-5.33-6.58-5.33-6.58-3-14,10.21-21.36,10.21-21.36s1.51,2.4,7.15,3.38C406.86,503.41,383.4,539.47,469.44,536.93Z" opacity="0.2"/><path d="M426.5,543.39c20.74-.64,42.66-.13,62.78-5.62-17.5,7.88-43.84,7.87-62.78,5.62Z" fill="#fff" opacity="0.2"/><path d="M508.5,558.39c-3.77,4.4-10.67,7.31-19.21,9.16A45.31,45.31,0,0,0,503.45,556a12.25,12.25,0,0,0-2.69-18.16c-5.9-3.81-13.52-4.56-13.52-4.56a30.22,30.22,0,0,0,6-2.62l.72-.41.26-.16.2-.12.16-.1C525.63,537.42,508.5,558.39,508.5,558.39Z" opacity="0.2"/><ellipse cx="481.62" cy="549.42" rx="10" ry="5.04" transform="translate(-109.06 119.4) rotate(-12.71)" fill="#fff" opacity="0.2"/><ellipse cx="490.62" cy="583.42" rx="10" ry="5.04" transform="translate(-116.32 122.21) rotate(-12.71)" fill="#fff" opacity="0.2"/><ellipse cx="493.97" cy="618.06" rx="13.57" ry="5.63" transform="translate(-123.86 123.8) rotate(-12.71)" fill="#fff" opacity="0.2"/><path d="M407.55,543.82c1,4.72-.24,6.86-1.76,7.82a4.26,4.26,0,0,1-4.62-.19,28,28,0,0,0-6.34-3.23c-5.19,1.43-.07,8,2.45,10.86a5.81,5.81,0,0,1,1.53,4.07c-.13,2.65-1.92,2.87-3.6,2.47a8.25,8.25,0,0,1-4.09-2.48c-.73-.78-1.4-1.45-2-2a12.89,12.89,0,0,0-8.12-3.35c-10.53-.6-17.48-9.37-17.48-9.37-15,5-44-6-44-6q-2.28-1-4.26-2.08h0c-17.86-9.38-18.73-18.91-18.73-18.91-5-13,9-20,9-20,13-7,23,9,23,9,9,11,40,16,40,16a32.88,32.88,0,0,1,12.05-3.69,32.52,32.52,0,0,1,3.65-.25c16.69-6.93,15.3,1.94,15.3,1.94,9,5,8.42,9.05,8.42,9.05C415.33,545.49,407.55,543.82,407.55,543.82Z" fill="#f9b499"/><path d="M380.55,522.7s-14.05,8.69-15.05,11.69c0,0-8-9-24-9a14.64,14.64,0,0,1-8-5s-17-21-26-10c0,0-10.53,10.83,7.73,29.91-17.86-9.38-18.73-18.91-18.73-18.91-5-13,9-20,9-20,13-7,23,9,23,9,9,11,40,16,40,16A32.88,32.88,0,0,1,380.55,522.7Z" fill="#f7a48b"/><path d="M407.55,543.82a39.29,39.29,0,0,0-14-6.43,17.51,17.51,0,0,1,14,6.43Z" fill="#f7a48b"/><path d="M407.92,533.44c-5.05.65-11.92-1.31-13.09-6.94,2.49,4.85,8.15,6.09,13.09,6.94Z" fill="#f7a48b"/><path d="M384.2,522.45a58.1,58.1,0,0,1,15.3,1.94,57.69,57.69,0,0,1-15.3-1.94Z" fill="#f7a48b"/><path d="M240.22,438.7s5.78,29.19,34.28,37.69c0,0-35,4-45-50,0,0-9-58,44-69,0,0,13-3,45.5-3.5a51.77,51.77,0,0,1,13,3.22s-63-6.22-78,15.78C254,372.89,225.44,398.51,240.22,438.7Z" fill="#f7a48b"/><path d="M295.5,363.39s-1.77-1.77,5.54-2.81a19,19,0,0,0,3.85-1c5.33-2,17.83-8.1,18.61-22.23,0,0,4.9,23.15-22.55,27.07C301,364.46,297.5,365.39,295.5,363.39Z" fill="#2f2e41"/><path d="M291.14,357.07a41.86,41.86,0,0,0,18.5-14.74c.72-.94,1.29-2,2.08-2.94-1,9.87-10.58,18.38-20.58,17.68Z" fill="#2f2e41"/><path d="M336.5,612.39c-9.71,8.9-14.18,26.32-15.53,32.64a2.48,2.48,0,0,1-3,1.89c-9.37-2.47-19.43-12.53-19.43-12.53a77.4,77.4,0,0,1-15.85,2.07h0c-11.13.24-19.39-2.45-25.26-5.69a33.84,33.84,0,0,1-16.46-22.44,38,38,0,0,1,5.58-29.94,62.88,62.88,0,0,1,11.57-2.08c18.17-1.66,36.43,3.08,36.43,3.08C321.5,575.39,336.5,612.39,336.5,612.39Z" fill="#2f2e41"/><path d="M282.64,636.46c-11.13.24-19.39-2.45-25.26-5.69a33.84,33.84,0,0,1-16.46-22.44,38,38,0,0,1,5.58-29.94,62.88,62.88,0,0,1,11.57-2.08C252.65,584.9,227.22,629.74,282.64,636.46Z" opacity="0.2"/><rect x="638.31" y="510.27" width="58.86" height="82.58" rx="3.47" transform="translate(-125.1 900.14) rotate(-63.29)" fill="#0071f2"/><rect x="638.31" y="510.27" width="58.86" height="82.58" rx="3.47" transform="translate(-125.1 900.14) rotate(-63.29)" fill="#fff" opacity="0.2" style="isolation:isolate"/><rect x="657.87" y="498.23" width="31.86" height="82.58" rx="3.47" transform="translate(-111 898.92) rotate(-63.29)" fill="#fff" opacity="0.2" style="isolation:isolate"/><path d="M705.31,541.91c.43-.87,3.24-6.43,3.67-7.31,1.36-2.67-2.74-7.47-9.13-10.69s-12.69-3.65-14-1l-3.67,7.3c-1.36,2.69,2.74,7.47,9.13,10.69S704,544.6,705.31,541.91Z" fill="#0071f2"/><path d="M705.31,541.91c.43-.87,3.24-6.43,3.67-7.31,1.36-2.67-2.74-7.47-9.13-10.69s-12.69-3.65-14-1l-3.67,7.3c-1.36,2.69,2.74,7.47,9.13,10.69S704,544.6,705.31,541.91Z" fill="#fff" opacity="0.1" style="isolation:isolate"/><path d="M695,533.64c-6.39-3.22-10.5-8-9.13-10.69s7.63-2.25,14,1,10.49,8,9.13,10.69S701.31,536.81,695,533.64Z" fill="#fff" opacity="0.2" style="isolation:isolate"/><path d="M676.4,527.35c.45-.88,3.24-6.45,3.69-7.31,1.34-2.69-2.76-7.47-9.15-10.69s-12.69-3.66-14-1c-.43.87-3.32,6.43-3.67,7.31-1.36,2.67,2.74,7.47,9.13,10.69S675,530,676.4,527.35Z" fill="#0071f2"/><path d="M676.4,527.35c.45-.88,3.24-6.45,3.69-7.31,1.34-2.69-2.76-7.47-9.15-10.69s-12.69-3.66-14-1c-.43.87-3.32,6.43-3.67,7.31-1.36,2.67,2.74,7.47,9.13,10.69S675,530,676.4,527.35Z" fill="#fff" opacity="0.1" style="isolation:isolate"/><path d="M666,519.08c-6.39-3.23-10.48-8-9.13-10.7s7.64-2.26,14,1,10.49,8,9.15,10.69S672.4,522.3,666,519.08Z" fill="#fff" opacity="0.2" style="isolation:isolate"/><path d="M696.83,558.78c.43-.88,3.23-6.44,3.66-7.31,1.37-2.69-2.73-7.47-9.13-10.69s-12.68-3.65-14-1c-.45.86-3.24,6.42-3.67,7.3-1.36,2.69,2.74,7.47,9.13,10.7S695.48,561.47,696.83,558.78Z" fill="#0071f2"/><path d="M696.83,558.78c.43-.88,3.23-6.44,3.66-7.31,1.37-2.69-2.73-7.47-9.13-10.69s-12.68-3.65-14-1c-.45.86-3.24,6.42-3.67,7.3-1.36,2.69,2.74,7.47,9.13,10.7S695.48,561.47,696.83,558.78Z" fill="#fff" opacity="0.1" style="isolation:isolate"/><path d="M686.46,550.51c-6.39-3.22-10.49-8-9.13-10.69s7.62-2.26,14,1,10.5,8,9.13,10.69S692.87,553.73,686.46,550.51Z" fill="#fff" opacity="0.2" style="isolation:isolate"/><path d="M667.87,544.22l3.67-7.31c1.36-2.69-2.74-7.47-9.14-10.69s-12.68-3.66-14-1c-.43.87-3.24,6.43-3.67,7.31-1.36,2.67,2.74,7.45,9.14,10.68S666.52,546.89,667.87,544.22Z" fill="#0071f2"/><path d="M667.87,544.22l3.67-7.31c1.36-2.69-2.74-7.47-9.14-10.69s-12.68-3.66-14-1c-.43.87-3.24,6.43-3.67,7.31-1.36,2.67,2.74,7.45,9.14,10.68S666.52,546.89,667.87,544.22Z" fill="#fff" opacity="0.1" style="isolation:isolate"/><path d="M657.51,536c-6.4-3.22-10.48-8-9.14-10.7s7.64-2.26,14,1,10.5,8,9.14,10.69S663.91,539.15,657.51,536Z" fill="#fff" opacity="0.2" style="isolation:isolate"/><rect x="563.22" y="549.78" width="82.58" height="82.58" rx="4.7" fill="#2f2e41"/><rect x="563.22" y="549.78" width="82.58" height="82.58" rx="4.7" fill="#fff" opacity="0.3" style="isolation:isolate"/><rect x="563.22" y="549.78" width="58.81" height="82.58" rx="4.7" fill="#fff" opacity="0.2" style="isolation:isolate"/><path d="M575.58,561.88H565.7c-5.55,0-10.05,5.81-10.05,13s4.5,13,10.05,13h9.88c5.54,0,10-5.8,10-13S581.12,561.88,575.58,561.88Z" fill="#2f2e41"/><path d="M575.58,561.88H565.7c-5.55,0-10.05,5.81-10.05,13s4.5,13,10.05,13h9.88c5.54,0,10-5.8,10-13S581.12,561.88,575.58,561.88Z" fill="#fff" opacity="0.2" style="isolation:isolate"/><ellipse cx="565.7" cy="574.85" rx="10.05" ry="12.97" fill="#fff" opacity="0.2" style="isolation:isolate"/><path d="M575.58,594.3H565.7c-5.55,0-10.05,5.81-10.05,13s4.5,13,10.05,13h9.88c5.54,0,10-5.79,10-13S581.12,594.3,575.58,594.3Z" fill="#2f2e41"/><path d="M575.58,594.3H565.7c-5.55,0-10.05,5.81-10.05,13s4.5,13,10.05,13h9.88c5.54,0,10-5.79,10-13S581.12,594.3,575.58,594.3Z" fill="#fff" opacity="0.2" style="isolation:isolate"/><ellipse cx="565.7" cy="607.26" rx="10.05" ry="12.97" fill="#fff" opacity="0.2" style="isolation:isolate"/><path d="M605.22,561.88h-9.88c-5.55,0-10.05,5.81-10.05,13s4.5,13,10.05,13h9.88c5.54,0,10-5.8,10-13S610.76,561.88,605.22,561.88Z" fill="#2f2e41"/><path d="M605.22,561.88h-9.88c-5.55,0-10.05,5.81-10.05,13s4.5,13,10.05,13h9.88c5.54,0,10-5.8,10-13S610.76,561.88,605.22,561.88Z" fill="#fff" opacity="0.2" style="isolation:isolate"/><ellipse cx="595.34" cy="574.85" rx="10.05" ry="12.97" fill="#fff" opacity="0.2" style="isolation:isolate"/><path d="M605.22,594.3h-9.88c-5.55,0-10.05,5.81-10.05,13s4.5,13,10.05,13h9.88c5.54,0,10-5.79,10-13S610.76,594.3,605.22,594.3Z" fill="#2f2e41"/><path d="M605.22,594.3h-9.88c-5.55,0-10.05,5.81-10.05,13s4.5,13,10.05,13h9.88c5.54,0,10-5.79,10-13S610.76,594.3,605.22,594.3Z" fill="#fff" opacity="0.2" style="isolation:isolate"/><ellipse cx="595.34" cy="607.26" rx="10.05" ry="12.97" fill="#fff" opacity="0.2" style="isolation:isolate"/><rect x="635.52" y="573.49" width="82.58" height="58.86" rx="3.47" fill="#0071f2"/><rect x="635.52" y="573.49" width="82.58" height="58.86" rx="3.47" fill="#fff" opacity="0.6" style="isolation:isolate"/><rect x="635.54" y="573.47" width="82.58" height="31.86" rx="3.47" fill="#fff" opacity="0.2" style="isolation:isolate"/><path d="M706,577.36v-8.17c0-3-5.79-5.45-13-5.45s-13,2.44-13,5.45v8.17c0,3,5.82,5.45,13,5.45S706,580.36,706,577.36Z" fill="#0071f2"/><path d="M706,577.36v-8.17c0-3-5.79-5.45-13-5.45s-13,2.44-13,5.45v8.17c0,3,5.82,5.45,13,5.45S706,580.36,706,577.36Z" fill="#fff" opacity="0.5" style="isolation:isolate"/><path d="M693,574.64c-7.16,0-13-2.45-13-5.45s5.81-5.45,13-5.45,13,2.44,13,5.45S700.2,574.64,693,574.64Z" fill="#fff" opacity="0.2" style="isolation:isolate"/><path d="M673.58,577.36v-8.17c0-3-5.81-5.45-13-5.45s-13,2.44-13,5.45v8.17c0,3,5.81,5.45,13,5.45S673.58,580.36,673.58,577.36Z" fill="#0071f2"/><path d="M673.58,577.36v-8.17c0-3-5.81-5.45-13-5.45s-13,2.44-13,5.45v8.17c0,3,5.81,5.45,13,5.45S673.58,580.36,673.58,577.36Z" fill="#fff" opacity="0.5" style="isolation:isolate"/><path d="M660.61,574.64c-7.16,0-13-2.45-13-5.45s5.81-5.45,13-5.45,13,2.44,13,5.45S667.77,574.64,660.61,574.64Z" fill="#fff" opacity="0.2" style="isolation:isolate"/><path d="M706,596.24v-8.17c0-3-5.79-5.45-13-5.45s-13,2.44-13,5.45v8.17c0,3,5.82,5.45,13,5.45S706,599.24,706,596.24Z" fill="#0071f2"/><path d="M706,596.24v-8.17c0-3-5.79-5.45-13-5.45s-13,2.44-13,5.45v8.17c0,3,5.82,5.45,13,5.45S706,599.24,706,596.24Z" fill="#fff" opacity="0.5" style="isolation:isolate"/><path d="M693,593.52c-7.16,0-13-2.45-13-5.45s5.81-5.45,13-5.45,13,2.44,13,5.45S700.2,593.52,693,593.52Z" fill="#fff" opacity="0.2" style="isolation:isolate"/><path d="M673.58,596.24v-8.17c0-3-5.81-5.45-13-5.45s-13,2.44-13,5.45v8.17c0,3,5.81,5.45,13,5.45S673.58,599.24,673.58,596.24Z" fill="#0071f2"/><path d="M673.58,596.24v-8.17c0-3-5.81-5.45-13-5.45s-13,2.44-13,5.45v8.17c0,3,5.81,5.45,13,5.45S673.58,599.24,673.58,596.24Z" fill="#fff" opacity="0.5" style="isolation:isolate"/><path d="M660.61,593.52c-7.16,0-13-2.45-13-5.45s5.81-5.45,13-5.45,13,2.44,13,5.45S667.77,593.52,660.61,593.52Z" fill="#fff" opacity="0.2" style="isolation:isolate"/></svg>