<svg viewBox="-2.4 -2.4 28.80 28.80" fill="none" xmlns="http://www.w3.org/2000/svg" stroke="#212B36"><g id="SVGRepo_bgCarrier" stroke-width="0" transform="translate(3.6000000000000014,3.6000000000000014), scale(0.7)"><path transform="translate(-2.4, -2.4), scale(0.8999999999999999)" d="M16,28.499239170302946C19.185140912750313,28.59764932897201,22.60895143418284,30.502644049530044,25.320229612046617,28.828195532661027C28.049175517355764,27.142835667683624,28.578897990961508,23.44289394956319,29.26170650873862,20.30898965034931C29.883520111576654,17.455035324196775,29.782346381765237,14.588157773724964,29.038222643105954,11.763624659385014C28.25317033040049,8.783735511216006,27.4309630236237,5.508084818156734,24.89947948622374,3.750917333557556C22.384477752663688,2.005190290646879,19.053527282834754,2.492626535406123,16,2.713460774471363C13.163227354825167,2.918619094824307,10.270965938059447,3.276161019904496,7.989066402382829,4.973895830144626C5.722598944652529,6.660149163871795,4.418695954076015,9.266803310652564,3.5701319769606936,11.96129105773895C2.7281624716497843,14.634839047830344,2.6163124884658755,17.416576193324943,3.2076782823149355,20.15647728662384C3.8557300406678867,23.15901436214283,4.5161450987151905,26.586962141343246,7.0890195669604115,28.26491236170807C9.640296072089633,29.92877704956161,12.955560861629547,28.40517622399309,16,28.499239170302946" fill="#3056D3" strokewidth="0"></path></g><g id="SVGRepo_tracerCarrier" stroke-linecap="round" stroke-linejoin="round" stroke="#ff0000" stroke-width="0.048"></g><g id="SVGRepo_iconCarrier"> <path d="M12 5C12 3.58579 12 2.87868 12.4393 2.43934C12.8787 2 13.5858 2 15 2H16C17.4142 2 18.1213 2 18.5607 2.43934C19 2.87868 19 3.58579 19 5C19 6.41421 19 7.12132 18.5607 7.56066C18.1213 8 17.4142 8 16 8H15C13.5858 8 12.8787 8 12.4393 7.56066C12 7.12132 12 6.41421 12 5Z" stroke="#212B36" stroke-width="1.5"></path> <path d="M19 3.7499L20.6154 3.07683C21.2416 2.81591 21.5547 2.68545 21.7774 2.83388C22 2.98231 22 3.32151 22 3.9999V5.9999C22 6.6783 22 7.0175 21.7774 7.16593C21.5547 7.31436 21.2416 7.1839 20.6154 6.92298L19 6.2499V3.7499Z" stroke="#212B36" stroke-width="1.5"></path> <path d="M16 22H8" stroke="#212B36" stroke-width="1.5" stroke-linecap="round"></path> <path d="M12 17L12 22" stroke="#212B36" stroke-width="1.5" stroke-linecap="round"></path> <path d="M22 10V11C22 13.8284 22 15.2426 21.1213 16.1213C20.2426 17 18.8284 17 16 17H8C5.17157 17 3.75736 17 2.87868 16.1213C2 15.2426 2 13.8284 2 11V10M9.5 2C6.21252 2 4.56878 2 3.46243 2.90796C3.25989 3.07418 3.07418 3.25989 2.90796 3.46243C2.40259 4.07821 2.17851 4.86048 2.07915 6" stroke="#212B36" stroke-width="1.5" stroke-linecap="round"></path> <path d="M22 13H16M2 13H12" stroke="#212B36" stroke-width="1.5" stroke-linecap="round"></path> </g></svg>