<svg version="1.0" xmlns="http://www.w3.org/2000/svg"
 width="255.000000pt" height="303.000000pt" viewBox="0 0 255.000000 303.000000"
 preserveAspectRatio="xMidYMid meet">

<g transform="translate(0.000000,303.000000) scale(0.100000,-0.100000)"
fill="#3056D3" stroke="none">
<path d="M1197 3013 c-4 -3 -7 -190 -7 -414 0 -397 -1 -408 -20 -414 -11 -3
-32 -22 -48 -41 l-29 -35 -99 11 c-271 29 -764 21 -786 -13 -14 -22 -2 -32 40
-32 l42 0 0 -293 c0 -225 -3 -293 -13 -296 -115 -33 -198 -101 -241 -197 -39
-86 -44 -159 -16 -250 19 -63 30 -81 83 -134 83 -83 149 -109 262 -103 62 4
93 11 138 33 66 33 140 106 131 130 -8 19 -18 19 -74 -1 -194 -68 -344 172
-199 317 62 62 109 69 245 33 14 -4 23 0 28 12 5 12 -7 30 -41 63 -57 55 -123
88 -196 99 l-52 7 -3 291 -2 291 52 7 c107 12 413 3 636 -20 l62 -6 -97 -48
c-152 -75 -383 -248 -383 -286 0 -25 28 -27 57 -4 l28 22 3 -484 2 -483 -31
-72 c-18 -40 -33 -73 -34 -73 -1 0 -35 14 -75 30 -123 51 -136 41 -90 -69 16
-41 30 -79 30 -86 0 -7 -37 -28 -82 -47 -62 -26 -83 -39 -83 -54 0 -14 21 -27
83 -53 45 -19 82 -40 82 -47 0 -6 -14 -44 -30 -85 -46 -110 -33 -120 90 -69
40 17 75 29 77 27 1 -2 18 -39 37 -83 47 -108 65 -108 112 0 19 44 36 81 37
83 2 2 37 -10 77 -27 123 -51 136 -41 90 69 -16 41 -30 79 -30 85 0 7 37 28
83 47 108 46 109 61 7 106 -41 18 -79 34 -85 36 -5 2 6 42 24 90 45 120 39
126 -85 77 -42 -17 -78 -29 -80 -28 -1 2 -17 34 -33 72 l-31 68 0 514 0 514
68 50 c37 28 114 74 172 104 l105 54 33 -29 c24 -22 42 -29 73 -29 39 0 99 23
99 38 0 4 7 15 14 24 12 17 23 16 184 -12 94 -17 178 -33 186 -36 14 -5 16
-44 16 -310 l0 -304 -27 -6 c-101 -24 -181 -109 -198 -212 -14 -87 35 -198
108 -242 31 -19 32 -21 29 -84 -3 -49 1 -73 17 -103 37 -73 112 -116 193 -112
18 1 55 -6 82 -15 58 -20 181 -23 248 -6 35 9 60 9 99 1 83 -18 165 6 220 66
138 148 48 379 -156 400 -44 5 -55 10 -69 34 -9 16 -35 43 -57 61 l-39 31 0
334 c0 183 2 333 4 333 2 0 20 -7 40 -15 41 -17 56 -13 56 15 0 13 -20 26 -75
49 -75 32 -262 88 -367 111 l-58 13 0 44 c0 42 1 43 34 43 39 0 59 18 46 40
-8 12 -45 15 -217 14 -114 0 -227 -5 -251 -11 -40 -10 -44 -9 -58 12 -8 13
-28 28 -44 35 l-30 12 0 414 c0 395 -1 414 -18 414 -10 0 -22 -3 -25 -7z m513
-953 c0 -26 -5 -40 -12 -40 -7 1 -85 13 -173 29 -144 25 -155 29 -115 34 85
12 105 14 203 16 l97 1 0 -40z m230 -155 c63 -18 127 -38 143 -44 l27 -11 0
-335 0 -335 -54 0 c-30 0 -61 -3 -69 -6 -9 -3 -17 3 -20 18 -9 33 -73 105
-111 125 -17 9 -44 19 -61 23 l-30 6 -3 303 -2 303 32 -7 c18 -4 85 -22 148
-40z m-1475 -490 l40 -17 -56 -12 c-188 -39 -262 -259 -136 -402 46 -52 83
-73 146 -84 l46 -7 -40 -19 c-28 -12 -64 -18 -116 -19 -65 0 -84 4 -134 30
-231 118 -202 460 47 541 54 17 150 12 203 -11z m1671 -310 c34 -17 59 -39 82
-74 32 -50 32 -50 86 -50 32 1 69 -6 91 -17 44 -21 90 -80 99 -129 8 -41 -8
-109 -36 -148 -41 -57 -139 -83 -216 -56 -23 8 -41 7 -77 -5 -63 -22 -172 -20
-243 3 -31 10 -78 18 -103 18 -112 -1 -181 108 -133 210 20 41 50 63 112 78
40 10 47 17 59 50 19 56 56 100 105 124 57 28 113 27 174 -4z m-1376 -466 c13
-34 30 -63 37 -66 8 -3 41 5 74 17 33 12 63 20 65 18 2 -3 -7 -32 -21 -66 -14
-34 -25 -64 -25 -67 0 -4 32 -21 72 -39 l71 -32 -67 -29 c-37 -16 -69 -32 -72
-36 -2 -4 7 -38 21 -75 14 -36 25 -68 25 -69 0 -2 -29 8 -64 22 -36 14 -71 23
-78 20 -8 -3 -25 -32 -38 -66 -14 -34 -27 -61 -30 -61 -3 0 -16 27 -30 61 -13
34 -30 63 -38 66 -7 3 -42 -6 -78 -20 -35 -14 -64 -23 -64 -21 0 2 11 32 25
66 14 34 25 65 25 70 0 5 -32 24 -71 42 l-71 32 67 28 c37 16 69 34 71 40 2 6
-7 39 -21 74 -14 34 -25 64 -25 66 0 2 29 -7 64 -21 36 -14 71 -23 78 -20 8 3
25 32 38 66 14 34 27 61 30 61 3 0 16 -27 30 -61z"/>
</g>
</svg>
