<svg width="35" height="35" viewBox="0 0 35 35" fill="none" xmlns="http://www.w3.org/2000/svg">
<rect width="35" height="35" rx="8" fill="#FBBF24"/>
<path d="M9.50493 25H25.5023C26.6204 25 27.3413 23.9018 26.8354 22.9735L18.8367 9.77057C18.2852 8.74314 16.7068 8.74314 16.1553 9.77057L8.15662 22.9735C7.66593 23.8998 8.38676 25 9.50493 25ZM18.7585 21.9298C18.7585 22.6155 18.2223 23.1433 17.4558 23.1433C16.6894 23.1433 16.1531 22.6155 16.1531 21.9298V21.9015C16.1531 21.2159 16.6894 20.688 17.4558 20.688C18.2223 20.688 18.7585 21.2159 18.7585 21.9015V21.9298ZM16.7524 13.0106H18.2548C18.6674 13.0106 18.9127 13.3383 18.8671 13.7529L18.2071 19.1186C18.1615 19.5049 17.8857 19.7455 17.5014 19.7455C17.1193 19.7455 16.8414 19.5028 16.7958 19.1186L16.1357 13.7529C16.0945 13.3383 16.3398 13.0106 16.7524 13.0106Z" fill="white"/>
</svg>
